<?xml version="1.0" encoding="utf-8"?>
<!-- Generator: Adobe Illustrator 23.1.1, SVG Export Plug-In . SVG Version: 6.00 Build 0)  -->
<svg version="1.1" id="Layer_1" xmlns="http://www.w3.org/2000/svg" xmlns:xlink="http://www.w3.org/1999/xlink" x="0px" y="0px"
	 viewBox="0 0 100 100" style="enable-background:new 0 0 100 100;" xml:space="preserve">
<g>
	<path d="M69.07,61.07c3.96,3.77,8.06,7.64,12.12,11.55c4.04,3.9,8.04,7.84,11.98,11.69c-3.11,3.08-5.79,5.73-8.49,8.4
		C76.88,84.81,68.97,76.8,60.9,68.62c-10.47,5.88-20.87,7.25-31.56,3.02c-7.52-2.97-13.28-8.11-17.21-15.22
		c-7.89-14.28-4.31-32.69,8.31-42.83C33.38,3.19,51.4,3.36,64.06,14C75.13,23.3,81.77,41.91,69.07,61.07z M67.98,40.01
		c0.01-13.99-11.67-25.8-25.72-26c-14.14-0.2-26.24,11.76-26.25,25.97c-0.01,14,11.67,25.81,25.72,26.01
		C55.85,66.18,67.97,54.19,67.98,40.01z"/>
</g>
</svg>
